<svg version="1.1" id="Layer_1" xmlns="http://www.w3.org/2000/svg" xmlns:xlink="http://www.w3.org/1999/xlink" x="0px" y="0px"
	 width="100%" viewBox="0 0 512 512" enable-background="new 0 0 512 512" xml:space="preserve">
<path fill="#3B3B3B" opacity="1.000000" stroke="none" 
	d="
M344.000000,513.000000 
	C229.361191,513.000000 115.222374,513.000000 1.041779,513.000000 
	C1.041779,342.402832 1.041779,171.805649 1.041779,1.104233 
	C171.555481,1.104233 342.111053,1.104233 512.833313,1.104233 
	C512.833313,171.666534 512.833313,342.333252 512.833313,513.000000 
	C456.805573,513.000000 400.652802,513.000000 344.000000,513.000000 
M317.265015,204.660446 
	C333.501190,198.457001 349.737366,192.253555 366.155151,185.980728 
	C366.494141,187.347321 366.740265,187.824753 366.707672,188.282379 
	C365.431793,206.220444 364.162445,224.159119 362.825562,242.092728 
	C360.448914,273.974152 358.017242,305.851471 355.673676,337.735321 
	C355.583069,338.967468 355.753723,340.951355 356.503845,341.392395 
	C360.934570,343.997467 365.389648,346.845581 370.229614,348.333588 
	C372.231720,348.949066 375.346985,346.628235 377.705048,345.221985 
	C380.429932,343.596954 383.590942,342.572174 383.965149,338.256134 
	C386.065033,314.036285 388.503265,289.846008 390.743530,265.638031 
	C393.965668,230.819687 397.041199,195.987473 400.401398,161.182632 
	C400.790985,157.147263 399.673340,155.650558 395.880066,154.580719 
	C352.265533,142.279922 308.712769,129.759842 265.087494,117.497604 
	C261.907257,116.603691 258.127380,116.555702 254.907516,117.311920 
	C240.637024,120.663498 226.470093,124.455666 212.264175,128.082520 
	C180.946716,136.078049 149.630219,144.077408 118.307190,152.051071 
	C115.443527,152.780045 112.911232,153.321960 113.365318,157.425659 
	C114.610359,168.677628 115.536720,179.964859 116.585732,191.238464 
	C119.100410,218.263443 121.621468,245.287827 124.123817,272.313934 
	C125.981407,292.376587 127.772392,312.445557 129.720245,332.499359 
	C129.918259,334.537964 130.447769,336.997681 131.751175,338.399200 
	C138.292374,345.432770 141.503693,345.855743 150.304153,341.633331 
	C151.355713,341.128815 152.368423,340.502869 153.468292,340.146912 
	C157.138901,338.959106 158.123047,336.456329 157.718307,332.793182 
	C156.987106,326.175537 156.490234,319.529999 155.991730,312.888885 
	C152.988052,272.873291 150.002747,232.856262 147.048859,192.836960 
	C146.874237,190.471054 147.026215,188.081039 147.026215,185.165863 
	C149.044601,185.751663 150.176437,185.949875 151.199982,186.396317 
	C175.019135,196.785675 198.699692,207.508759 222.709442,217.435898 
	C230.438034,220.631393 235.134583,224.305725 233.522415,233.316040 
	C233.095749,235.700653 233.899872,238.282074 233.932068,240.775787 
	C234.385925,275.925262 234.779221,311.075592 235.240387,346.224976 
	C235.504807,366.379456 235.846161,386.533020 236.218765,406.685760 
	C236.248505,408.295044 236.226440,410.602478 237.195068,411.377533 
	C241.597122,414.900024 246.003265,418.898743 251.123215,420.826569 
	C253.455170,421.704620 257.466248,418.227234 260.671356,416.636017 
	C262.159119,415.897430 263.903076,415.238586 264.887207,414.022675 
	C266.418457,412.130798 268.369232,409.839874 268.472229,407.639893 
	C270.465363,365.076538 266.183075,322.413422 271.517700,279.834106 
	C273.574249,263.419250 272.117371,246.548401 272.009674,229.886948 
	C271.972748,224.179398 273.722107,220.863022 279.618622,218.891891 
	C292.089355,214.722992 304.260254,209.657150 317.265015,204.660446 
z"/>
<path fill="#0A0A0A" opacity="1.000000" stroke="none" 
	d="
M316.909607,204.809830 
	C304.260254,209.657150 292.089355,214.722992 279.618622,218.891891 
	C273.722107,220.863022 271.972748,224.179398 272.009674,229.886948 
	C272.117371,246.548401 273.574249,263.419250 271.517700,279.834106 
	C266.183075,322.413422 270.465363,365.076538 268.472229,407.639893 
	C268.369232,409.839874 266.418457,412.130798 264.887207,414.022675 
	C263.903076,415.238586 262.159119,415.897430 260.671356,416.636017 
	C257.466248,418.227234 253.455170,421.704620 251.123215,420.826569 
	C246.003265,418.898743 241.597122,414.900024 237.195068,411.377533 
	C236.226440,410.602478 236.248505,408.295044 236.218765,406.685760 
	C235.846161,386.533020 235.504807,366.379456 235.240387,346.224976 
	C234.779221,311.075592 234.385925,275.925262 233.932068,240.775787 
	C233.899872,238.282074 233.095749,235.700653 233.522415,233.316040 
	C235.134583,224.305725 230.438034,220.631393 222.709442,217.435898 
	C198.699692,207.508759 175.019135,196.785675 151.199982,186.396317 
	C150.176437,185.949875 149.044601,185.751663 147.026215,185.165863 
	C147.026215,188.081039 146.874237,190.471054 147.048859,192.836960 
	C150.002747,232.856262 152.988052,272.873291 155.991730,312.888885 
	C156.490234,319.529999 156.987106,326.175537 157.718307,332.793182 
	C158.123047,336.456329 157.138901,338.959106 153.468292,340.146912 
	C152.368423,340.502869 151.355713,341.128815 150.304153,341.633331 
	C141.503693,345.855743 138.292374,345.432770 131.751175,338.399200 
	C130.447769,336.997681 129.918259,334.537964 129.720245,332.499359 
	C127.772392,312.445557 125.981407,292.376587 124.123817,272.313934 
	C121.621468,245.287827 119.100410,218.263443 116.585732,191.238464 
	C115.536720,179.964859 114.610359,168.677628 113.365318,157.425659 
	C112.911232,153.321960 115.443527,152.780045 118.307190,152.051071 
	C149.630219,144.077408 180.946716,136.078049 212.264175,128.082520 
	C226.470093,124.455666 240.637024,120.663498 254.907516,117.311920 
	C258.127380,116.555702 261.907257,116.603691 265.087494,117.497604 
	C308.712769,129.759842 352.265533,142.279922 395.880066,154.580719 
	C399.673340,155.650558 400.790985,157.147263 400.401398,161.182632 
	C397.041199,195.987473 393.965668,230.819687 390.743530,265.638031 
	C388.503265,289.846008 386.065033,314.036285 383.965149,338.256134 
	C383.590942,342.572174 380.429932,343.596954 377.705048,345.221985 
	C375.346985,346.628235 372.231720,348.949066 370.229614,348.333588 
	C365.389648,346.845581 360.934570,343.997467 356.503845,341.392395 
	C355.753723,340.951355 355.583069,338.967468 355.673676,337.735321 
	C358.017242,305.851471 360.448914,273.974152 362.825562,242.092728 
	C364.162445,224.159119 365.431793,206.220444 366.707672,188.282379 
	C366.740265,187.824753 366.494141,187.347321 366.155151,185.980728 
	C349.737366,192.253555 333.501190,198.457001 316.909607,204.809830 
M381.221130,333.183167 
	C382.159393,322.455536 383.097656,311.727936 384.311493,300.213715 
	C384.845703,290.473236 385.379913,280.732758 386.353149,270.316589 
	C386.708527,269.415741 387.296661,268.536804 387.383881,267.610687 
	C388.502594,255.736526 389.549744,243.855621 390.821777,231.107208 
	C392.600494,212.408432 394.379181,193.709656 396.301392,173.502335 
	C391.761780,175.795837 388.475983,177.455887 384.425537,179.153915 
	C383.778961,179.307510 383.131775,179.458664 382.485870,179.615021 
	C374.217499,181.616898 369.645264,185.225067 369.308502,195.360474 
	C368.458466,220.940659 365.841980,246.462585 363.914307,272.006409 
	C362.387146,292.242889 360.914124,312.484009 359.244415,332.708832 
	C358.654541,339.853882 361.436096,343.069641 369.307648,343.251648 
	C369.514069,342.522217 369.865967,341.756317 369.934692,340.965820 
	C371.634277,321.410065 373.334015,301.854248 374.971710,282.293213 
	C377.428284,252.951630 379.755402,223.598785 382.353302,194.269836 
	C382.755585,189.728287 384.306610,185.288498 385.546875,181.603531 
	C385.518494,184.898865 385.667633,188.206985 385.431030,191.487305 
	C384.408752,205.659271 383.273590,219.823090 381.953278,234.835388 
	C380.978607,247.222580 380.003967,259.609772 378.742249,272.786407 
	C377.865387,283.522797 376.988525,294.259186 375.919342,305.835693 
	C375.071594,316.207886 374.223816,326.580078 373.162720,337.790161 
	C373.065552,339.704163 372.968353,341.618164 372.863922,343.675232 
	C380.073517,341.759308 380.998901,340.605591 381.221130,333.183167 
M252.937180,346.919525 
	C253.003143,353.273376 253.069092,359.627228 252.965118,366.907440 
	C252.965118,383.435638 252.965118,399.963806 252.965118,417.688599 
	C257.030579,415.278137 260.093536,413.709717 262.845306,411.712494 
	C263.997314,410.876373 265.155182,409.142334 265.178833,407.796661 
	C265.435425,393.187439 265.467041,378.574310 265.690918,363.039276 
	C265.673523,357.353912 265.656128,351.668518 265.791168,345.059326 
	C265.510529,330.038025 265.229889,315.016693 265.162201,299.172943 
	C265.498993,297.412384 266.108124,295.655365 266.131256,293.890686 
	C266.417175,272.100708 266.624054,250.309677 266.824982,228.518677 
	C266.837891,227.113312 266.633942,225.705933 266.488861,223.726288 
	C262.127228,225.361633 258.180634,226.610138 254.477676,228.370972 
	C253.370026,228.897690 252.295425,230.859192 252.301086,232.158585 
	C252.396652,254.109924 252.665421,276.060486 252.676590,298.925751 
	C252.820557,314.615723 252.964523,330.305664 252.937180,346.919525 
M154.349655,169.793243 
	C161.557388,172.618530 168.765121,175.443802 176.485031,178.744232 
	C186.326370,182.755798 196.167694,186.767365 206.621750,191.185455 
	C215.029388,194.635117 223.437027,198.084763 232.420685,201.918915 
	C237.469254,204.026123 242.422943,206.427231 247.611084,208.102173 
	C249.821426,208.815781 252.521896,208.011292 255.737396,207.873032 
	C301.675964,191.258316 347.614502,174.643616 393.553040,158.028915 
	C393.539124,157.486496 393.525208,156.944077 393.511292,156.401672 
	C379.047028,152.815689 364.582794,149.229706 349.709045,145.024963 
	C344.857330,143.511948 340.005615,141.998947 334.510559,140.152328 
	C327.443481,138.206085 320.376373,136.259842 312.660583,133.983475 
	C303.817169,131.532013 294.973724,129.080536 285.505615,126.231194 
	C278.697571,124.379646 271.889496,122.528099 264.484314,120.267029 
	C261.251404,120.232201 257.844147,119.504387 254.811874,120.267189 
	C213.795685,130.585281 172.830841,141.107468 131.855972,151.589676 
	C128.236877,152.515503 124.636536,153.514572 121.027489,154.479630 
	C120.985283,154.894806 120.943077,155.309982 120.900871,155.725159 
	C131.899277,160.233627 142.897675,164.742096 154.349655,169.793243 
M252.241638,222.685669 
	C252.318848,224.462524 251.690994,227.074936 255.752548,224.976135 
	C301.443298,207.539001 347.139923,190.117233 392.798737,172.596848 
	C394.299713,172.020889 396.204987,170.642853 396.549438,169.289429 
	C397.298889,166.344864 397.161011,163.174454 397.442139,159.325027 
	C394.707642,160.229477 392.833038,160.798141 390.994171,161.465225 
	C347.618500,177.200912 304.247375,192.949097 260.873627,208.690079 
	C251.756714,211.998764 251.753494,211.989883 252.241638,222.685669 
M250.032104,375.500000 
	C249.749512,329.235840 249.462479,282.971710 249.188583,236.707489 
	C249.141296,228.719666 245.947525,225.604233 236.927475,225.356384 
	C236.927475,227.163193 236.895126,228.959808 236.932663,230.754974 
	C237.203888,243.727448 237.552689,256.698608 237.756577,269.672119 
	C238.153976,294.961151 238.455017,320.251740 238.829758,345.541138 
	C239.118195,365.005371 239.440857,384.469147 239.785202,403.932465 
	C239.903320,410.610168 241.980392,413.038940 250.033554,415.411377 
	C250.033554,402.276367 250.033554,389.388184 250.032104,375.500000 
M150.603806,283.994965 
	C149.418915,268.075623 148.258041,252.154419 147.042450,236.237396 
	C145.788864,219.822968 144.526917,203.408783 143.129807,187.006317 
	C142.988037,185.341965 142.347733,182.999252 141.152344,182.281937 
	C137.703278,180.212219 133.851913,178.812927 129.172852,176.706635 
	C133.914230,232.086731 138.541916,286.138947 143.175125,340.255615 
	C152.799057,338.602631 154.539139,336.687866 153.965027,328.200897 
	C152.988556,313.766418 151.825287,299.344604 150.603806,283.994965 
M216.250031,211.266159 
	C226.820190,215.871384 237.390350,220.476608 248.109009,225.146530 
	C250.772400,214.523071 249.868073,212.227417 241.800781,208.880463 
	C202.100601,192.409576 162.376022,175.997452 122.650841,159.586929 
	C121.183861,158.980927 119.620979,158.607101 118.098442,158.123688 
	C116.043114,164.934616 117.270416,168.021545 123.044067,170.550217 
	C153.868362,184.050262 184.718567,197.491165 216.250031,211.266159 
M138.827209,325.823456 
	C138.506149,322.010284 138.195755,318.196136 137.862350,314.384064 
	C133.948395,269.632904 129.940933,224.889511 126.235123,180.121155 
	C125.800682,174.872894 123.167496,173.406464 118.289360,172.606613 
	C118.677467,177.566391 118.978592,182.158722 119.404846,186.739410 
	C121.902245,213.577255 124.440590,240.411285 126.942032,267.248749 
	C128.980209,289.115967 130.999725,310.984955 132.993774,332.856232 
	C133.358307,336.854401 135.850800,338.311096 139.669037,339.040649 
	C139.395737,334.655365 139.149200,330.699432 138.827209,325.823456 
z"/>
<path fill="#A6A6A6" opacity="1.000000" stroke="none" 
	d="
M350.118530,145.643738 
	C364.582794,149.229706 379.047028,152.815689 393.511292,156.401672 
	C393.525208,156.944077 393.539124,157.486496 393.553040,158.028915 
	C347.614502,174.643616 301.675964,191.258316 255.369507,207.472412 
	C255.250122,205.284622 254.862976,202.936096 255.858566,201.808655 
	C259.896027,197.236588 264.003784,192.593445 268.754913,188.818954 
	C274.521423,184.237762 280.896271,180.401276 287.131714,176.437286 
	C293.279388,172.529114 299.284607,168.205032 305.879333,165.232727 
	C318.731354,159.440247 331.971588,154.513016 344.996399,149.095963 
	C346.860016,148.320862 348.418732,146.812653 350.118530,145.643738 
z"/>
<path fill="#9B9B9B" opacity="1.000000" stroke="none" 
	d="
M286.130310,126.629066 
	C294.973724,129.080536 303.817169,131.532013 312.705750,134.444855 
	C311.889801,135.396042 311.080078,136.033890 310.159790,136.353333 
	C297.926666,140.599442 285.591827,144.568161 273.452087,149.064285 
	C251.444687,157.215027 231.056000,168.561829 211.496368,181.430191 
	C208.242355,183.571030 205.437225,186.257385 206.009033,190.778931 
	C196.167694,186.767365 186.326370,182.755798 176.247650,178.118561 
	C177.297775,175.707138 178.224533,173.369385 179.944489,172.245270 
	C184.104828,169.526230 188.535477,167.162903 193.034912,165.031418 
	C206.840118,158.491531 220.514877,151.602386 234.647430,145.848938 
	C247.859695,140.470154 261.620880,136.449753 275.077087,131.653702 
	C278.875885,130.299728 282.452026,128.321167 286.130310,126.629066 
z"/>
<path fill="#A0A0A0" opacity="1.000000" stroke="none" 
	d="
M206.315399,190.982193 
	C205.437225,186.257385 208.242355,183.571030 211.496368,181.430191 
	C231.056000,168.561829 251.444687,157.215027 273.452087,149.064285 
	C285.591827,144.568161 297.926666,140.599442 310.159790,136.353333 
	C311.080078,136.033890 311.889801,135.396042 313.030121,134.609909 
	C320.376373,136.259842 327.443481,138.206085 334.668030,140.678864 
	C328.462250,143.825989 322.098785,146.446182 315.735687,149.067261 
	C306.553040,152.849792 297.173248,156.222885 288.240173,160.523865 
	C277.984375,165.461700 267.281830,169.529846 258.325684,177.106735 
	C252.175552,182.309692 244.517029,185.716187 238.281067,190.836960 
	C235.250824,193.325317 233.936066,197.902740 231.844681,201.534424 
	C223.437027,198.084763 215.029388,194.635117 206.315399,190.982193 
z"/>
<path fill="#323232" opacity="1.000000" stroke="none" 
	d="
M250.032837,376.000000 
	C250.033554,389.388184 250.033554,402.276367 250.033554,415.411377 
	C241.980392,413.038940 239.903320,410.610168 239.785202,403.932465 
	C239.440857,384.469147 239.118195,365.005371 238.829758,345.541138 
	C238.455017,320.251740 238.153976,294.961151 237.756577,269.672119 
	C237.552689,256.698608 237.203888,243.727448 236.932663,230.754974 
	C236.895126,228.959808 236.927475,227.163193 236.927475,225.356384 
	C245.947525,225.604233 249.141296,228.719666 249.188583,236.707489 
	C249.462479,282.971710 249.749512,329.235840 250.032837,376.000000 
z"/>
<path fill="#323232" opacity="1.000000" stroke="none" 
	d="
M150.672150,284.456207 
	C151.825287,299.344604 152.988556,313.766418 153.965027,328.200897 
	C154.539139,336.687866 152.799057,338.602631 143.175125,340.255615 
	C138.541916,286.138947 133.914230,232.086731 129.172852,176.706635 
	C133.851913,178.812927 137.703278,180.212219 141.152344,182.281937 
	C142.347733,182.999252 142.988037,185.341965 143.129807,187.006317 
	C144.526917,203.408783 145.788864,219.822968 147.042450,236.237396 
	C148.258041,252.154419 149.418915,268.075623 150.672150,284.456207 
z"/>
<path fill="#323232" opacity="1.000000" stroke="none" 
	d="
M385.326416,180.801651 
	C384.306610,185.288498 382.755585,189.728287 382.353302,194.269836 
	C379.755402,223.598785 377.428284,252.951630 374.971710,282.293213 
	C373.334015,301.854248 371.634277,321.410065 369.934692,340.965820 
	C369.865967,341.756317 369.514069,342.522217 369.307648,343.251648 
	C361.436096,343.069641 358.654541,339.853882 359.244415,332.708832 
	C360.914124,312.484009 362.387146,292.242889 363.914307,272.006409 
	C365.841980,246.462585 368.458466,220.940659 369.308502,195.360474 
	C369.645264,185.225067 374.217499,181.616898 382.485870,179.615021 
	C383.131775,179.458664 383.778961,179.307510 384.944000,179.400513 
	C385.417114,180.031952 385.371765,180.416809 385.326416,180.801651 
z"/>
<path fill="#939393" opacity="1.000000" stroke="none" 
	d="
M252.404984,221.982971 
	C251.753494,211.989883 251.756714,211.998764 260.873627,208.690079 
	C304.247375,192.949097 347.618500,177.200912 390.994171,161.465225 
	C392.833038,160.798141 394.707642,160.229477 397.442139,159.325027 
	C397.161011,163.174454 397.298889,166.344864 396.549438,169.289429 
	C396.204987,170.642853 394.299713,172.020889 392.798737,172.596848 
	C347.139923,190.117233 301.443298,207.539001 255.305389,224.700287 
	C254.040482,223.610626 253.222733,222.796799 252.404984,221.982971 
z"/>
<path fill="#969696" opacity="1.000000" stroke="none" 
	d="
M285.817963,126.430130 
	C282.452026,128.321167 278.875885,130.299728 275.077087,131.653702 
	C261.620880,136.449753 247.859695,140.470154 234.647430,145.848938 
	C220.514877,151.602386 206.840118,158.491531 193.034912,165.031418 
	C188.535477,167.162903 184.104828,169.526230 179.944489,172.245270 
	C178.224533,173.369385 177.297775,175.707138 175.991547,177.880997 
	C168.765121,175.443802 161.557388,172.618530 154.172272,169.145599 
	C155.903442,166.378174 157.408707,163.412186 159.787277,162.278625 
	C173.225082,155.874649 186.592865,149.159409 200.515411,143.976273 
	C220.240005,136.633118 240.438721,130.567001 260.393219,123.831879 
	C262.114838,123.250809 263.526062,121.750076 265.081451,120.676544 
	C271.889496,122.528099 278.697571,124.379646 285.817963,126.430130 
z"/>
<path fill="#A4A4A4" opacity="1.000000" stroke="none" 
	d="
M232.132690,201.726669 
	C233.936066,197.902740 235.250824,193.325317 238.281067,190.836960 
	C244.517029,185.716187 252.175552,182.309692 258.325684,177.106735 
	C267.281830,169.529846 277.984375,165.461700 288.240173,160.523865 
	C297.173248,156.222885 306.553040,152.849792 315.735687,149.067261 
	C322.098785,146.446182 328.462250,143.825989 334.989716,140.845673 
	C340.005615,141.998947 344.857330,143.511948 349.913788,145.334351 
	C348.418732,146.812653 346.860016,148.320862 344.996399,149.095963 
	C331.971588,154.513016 318.731354,159.440247 305.879333,165.232727 
	C299.284607,168.205032 293.279388,172.529114 287.131714,176.437286 
	C280.896271,180.401276 274.521423,184.237762 268.754913,188.818954 
	C264.003784,192.593445 259.896027,197.236588 255.858566,201.808655 
	C254.862976,202.936096 255.250122,205.284622 255.000610,207.484222 
	C252.521896,208.011292 249.821426,208.815781 247.611084,208.102173 
	C242.422943,206.427231 237.469254,204.026123 232.132690,201.726669 
z"/>
<path fill="#323232" opacity="1.000000" stroke="none" 
	d="
M215.904922,211.109344 
	C184.718567,197.491165 153.868362,184.050262 123.044067,170.550217 
	C117.270416,168.021545 116.043114,164.934616 118.098442,158.123688 
	C119.620979,158.607101 121.183861,158.980927 122.650841,159.586929 
	C162.376022,175.997452 202.100601,192.409576 241.800781,208.880463 
	C249.868073,212.227417 250.772400,214.523071 248.109009,225.146530 
	C237.390350,220.476608 226.820190,215.871384 215.904922,211.109344 
z"/>
<path fill="#8F8F8F" opacity="1.000000" stroke="none" 
	d="
M264.782898,120.471786 
	C263.526062,121.750076 262.114838,123.250809 260.393219,123.831879 
	C240.438721,130.567001 220.240005,136.633118 200.515411,143.976273 
	C186.592865,149.159409 173.225082,155.874649 159.787277,162.278625 
	C157.408707,163.412186 155.903442,166.378174 153.945496,168.874268 
	C142.897675,164.742096 131.899277,160.233627 120.900871,155.725159 
	C120.943077,155.309982 120.985283,154.894806 121.027489,154.479630 
	C124.636536,153.514572 128.236877,152.515503 131.855972,151.589676 
	C172.830841,141.107468 213.795685,130.585281 254.811874,120.267189 
	C257.844147,119.504387 261.251404,120.232201 264.782898,120.471786 
z"/>
<path fill="#323232" opacity="1.000000" stroke="none" 
	d="
M138.864929,326.283478 
	C139.149200,330.699432 139.395737,334.655365 139.669037,339.040649 
	C135.850800,338.311096 133.358307,336.854401 132.993774,332.856232 
	C130.999725,310.984955 128.980209,289.115967 126.942032,267.248749 
	C124.440590,240.411285 121.902245,213.577255 119.404846,186.739410 
	C118.978592,182.158722 118.677467,177.566391 118.289360,172.606613 
	C123.167496,173.406464 125.800682,174.872894 126.235123,180.121155 
	C129.940933,224.889511 133.948395,269.632904 137.862350,314.384064 
	C138.195755,318.196136 138.506149,322.010284 138.864929,326.283478 
z"/>
<path fill="#898989" opacity="1.000000" stroke="none" 
	d="
M252.895828,298.011230 
	C252.665421,276.060486 252.396652,254.109924 252.301086,232.158585 
	C252.295425,230.859192 253.370026,228.897690 254.477676,228.370972 
	C258.180634,226.610138 262.127228,225.361633 266.488861,223.726288 
	C266.633942,225.705933 266.837891,227.113312 266.824982,228.518677 
	C266.624054,250.309677 266.417175,272.100708 266.131256,293.890686 
	C266.108124,295.655365 265.498993,297.412384 264.677582,299.670868 
	C259.885406,302.286774 256.481506,299.673035 252.895828,298.011230 
z"/>
<path fill="#6F6F6F" opacity="1.000000" stroke="none" 
	d="
M265.559998,363.962219 
	C265.467041,378.574310 265.435425,393.187439 265.178833,407.796661 
	C265.155182,409.142334 263.997314,410.876373 262.845306,411.712494 
	C260.093536,413.709717 257.030579,415.278137 252.965118,417.688599 
	C252.965118,399.963806 252.965118,383.435638 253.461182,366.448181 
	C257.824829,365.313324 261.692413,364.637787 265.559998,363.962219 
z"/>
<path fill="#7F7F7F" opacity="1.000000" stroke="none" 
	d="
M252.786209,298.468506 
	C256.481506,299.673035 259.885406,302.286774 264.571106,300.082092 
	C265.229889,315.016693 265.510529,330.038025 265.276337,345.522736 
	C260.877167,345.989319 256.992828,345.992493 253.108490,345.995667 
	C252.964523,330.305664 252.820557,314.615723 252.786209,298.468506 
z"/>
<path fill="#8F8F8F" opacity="1.000000" stroke="none" 
	d="
M385.436646,181.202591 
	C385.371765,180.416809 385.417114,180.031952 385.326324,179.381516 
	C388.475983,177.455887 391.761780,175.795837 396.301392,173.502335 
	C394.379181,193.709656 392.600494,212.408432 390.356445,231.556992 
	C387.320618,232.667816 384.750061,233.328842 382.179504,233.989883 
	C383.273590,219.823090 384.408752,205.659271 385.431030,191.487305 
	C385.667633,188.206985 385.518494,184.898865 385.436646,181.202591 
z"/>
<path fill="#898989" opacity="1.000000" stroke="none" 
	d="
M382.066406,234.412628 
	C384.750061,233.328842 387.320618,232.667816 390.253052,231.991608 
	C389.549744,243.855621 388.502594,255.736526 387.383881,267.610687 
	C387.296661,268.536804 386.708527,269.415741 385.760071,270.740417 
	C383.121094,271.441864 381.075195,271.719421 379.029297,271.996979 
	C380.003967,259.609772 380.978607,247.222580 382.066406,234.412628 
z"/>
<path fill="#7F7F7F" opacity="1.000000" stroke="none" 
	d="
M378.885773,272.391693 
	C381.075195,271.719421 383.121094,271.441864 385.540558,271.078278 
	C385.379913,280.732758 384.845703,290.473236 383.858398,300.728088 
	C380.974091,302.493500 378.542877,303.744537 376.111664,304.995575 
	C376.988525,294.259186 377.865387,283.522797 378.885773,272.391693 
z"/>
<path fill="#7C7C7C" opacity="1.000000" stroke="none" 
	d="
M376.015503,305.415649 
	C378.542877,303.744537 380.974091,302.493500 383.720612,301.121399 
	C383.097656,311.727936 382.159393,322.455536 380.772278,333.679749 
	C378.007599,335.101654 375.691833,336.026947 373.376038,336.952271 
	C374.223816,326.580078 375.071594,316.207886 376.015503,305.415649 
z"/>
<path fill="#7C7C7C" opacity="1.000000" stroke="none" 
	d="
M253.022827,346.457581 
	C256.992828,345.992493 260.877167,345.989319 265.200134,345.984650 
	C265.656128,351.668518 265.673523,357.353912 265.625458,363.500732 
	C261.692413,364.637787 257.824829,365.313324 253.546143,365.984985 
	C253.069092,359.627228 253.003143,353.273376 253.022827,346.457581 
z"/>
<path fill="#6F6F6F" opacity="1.000000" stroke="none" 
	d="
M373.269379,337.371216 
	C375.691833,336.026947 378.007599,335.101654 380.657471,334.087585 
	C380.998901,340.605591 380.073517,341.759308 372.863922,343.675232 
	C372.968353,341.618164 373.065552,339.704163 373.269379,337.371216 
z"/>
<path fill="#8F8F8F" opacity="1.000000" stroke="none" 
	d="
M252.323303,222.334320 
	C253.222733,222.796799 254.040482,223.610626 254.931244,224.720673 
	C251.690994,227.074936 252.318848,224.462524 252.323303,222.334320 
z"/>
</svg>